<?xml version="1.0" encoding="utf-8"?>
<!-- Generator: Adobe Illustrator 24.0.0, SVG Export Plug-In . SVG Version: 6.00 Build 0)  -->
<svg version="1.1" id="Capa_1" xmlns="http://www.w3.org/2000/svg" xmlns:xlink="http://www.w3.org/1999/xlink" x="0px" y="0px"
	 viewBox="0 0 316.2 419.3" style="enable-background:new 0 0 316.2 419.3;" xml:space="preserve">
<style type="text/css">
	.st0{fill:#F8F3F3;}
	.st1{fill:#1D1D1B;}
	.st2{fill:#05C4E6;}
	.st3{fill:#82D9FF;}
	.st4{fill:#416D80;}
	.st5{fill:#99E265;}
	.st6{fill:#A3F06C;}
</style>
<path class="st0" d="M-96.9,59.9l-40-13.4l-35.2,13.4l-35.5-13.4l-39.8,13.4l18.5-62.8l30-10.1l26.7,10.1l26.5-10.1l30.1,10.1
	L-96.9,59.9z"/>
<path class="st1" d="M-96.9,61.2c-0.1,0-0.3,0-0.4-0.1l-39.5-13.3l-34.8,13.3c-0.3,0.1-0.6,0.1-0.9,0l-35-13.3l-39.3,13.3
	c-0.5,0.2-1,0-1.3-0.3c-0.4-0.3-0.5-0.8-0.4-1.3l18.5-62.8c0.1-0.4,0.4-0.7,0.8-0.9l30-10.1c0.3-0.1,0.6-0.1,0.9,0l26.3,9.9
	l26.1-9.9c0.3-0.1,0.6-0.1,0.9,0L-115-4.2c0.4,0.1,0.7,0.5,0.8,0.9l18.5,62.8c0.1,0.5,0,1-0.4,1.3C-96.3,61-96.6,61.2-96.9,61.2z
	 M-207.6,45.1c0.2,0,0.3,0,0.5,0.1l35,13.2l34.8-13.2c0.3-0.1,0.6-0.1,0.9,0l37.6,12.6L-116.5-2l-29.1-9.8l-26.1,9.9
	c-0.3,0.1-0.6,0.1-0.9,0l-26.3-9.9L-227.8-2l-17.6,59.8l37.4-12.6C-207.9,45.2-207.7,45.1-207.6,45.1L-207.6,45.1z"/>
<path class="st2" d="M-222.5,3.2l-13.1,44.5l28.1-9.5l8.4-42.9L-222.5,3.2z"/>
<path class="st3" d="M-219.1,5.9l19.3-6.5l0.8-4.1l-23.5,7.9l-13.1,44.5l4.6-1.6L-219.1,5.9z"/>
<path class="st4" d="M-199-4.8l-8.4,42.9l35.3,13.4V5.4L-199-4.8z"/>
<path class="st2" d="M-172.1,5.4v46.1l35.1-13.4l-8.3-42.9L-172.1,5.4z"/>
<path class="st4" d="M-121.8,3.2l-23.6-7.9l8.3,42.9l28.4,9.5L-121.8,3.2z"/>
<g>
	<path class="st1" d="M-235.6,48.9c-0.3,0-0.7-0.1-0.9-0.4c-0.4-0.3-0.5-0.8-0.4-1.3l13.1-44.5c0.1-0.4,0.4-0.7,0.8-0.9l23.5-7.9
		c0.5-0.2,0.9-0.1,1.3,0.3c0.4,0.3,0.5,0.8,0.4,1.2l-8.4,42.9c-0.1,0.5-0.4,0.8-0.8,1l-28.2,9.5C-235.3,48.9-235.4,48.9-235.6,48.9z
		 M-221.4,4.2l-12.2,41.4l25-8.4l7.8-40L-221.4,4.2z"/>
	<path class="st1" d="M-172.1,52.8c-0.2,0-0.3,0-0.5-0.1l-35.3-13.4c-0.6-0.2-0.9-0.8-0.8-1.5l8.4-42.9c0.1-0.4,0.3-0.7,0.7-0.9
		c0.3-0.2,0.8-0.2,1.1-0.1l26.9,10.2c0.5,0.2,0.8,0.7,0.8,1.2l0,46.1c0,0.4-0.2,0.8-0.6,1.1C-171.6,52.7-171.9,52.8-172.1,52.8
		L-172.1,52.8z M-206,37.3l32.5,12.3V6.3L-198.1-3L-206,37.3z"/>
	<path class="st1" d="M-172.1,52.8c-0.3,0-0.5-0.1-0.8-0.2c-0.4-0.2-0.6-0.7-0.6-1.1V5.4c0-0.6,0.3-1,0.8-1.2L-145.9-6
		c0.4-0.1,0.8-0.1,1.1,0.1c0.4,0.2,0.6,0.5,0.7,0.9l8.3,42.9c0.1,0.6-0.2,1.2-0.8,1.5l-35.1,13.4C-171.8,52.8-172,52.8-172.1,52.8
		L-172.1,52.8z M-170.8,6.3v43.3l32.3-12.3L-146.4-3L-170.8,6.3z"/>
	<path class="st1" d="M-108.7,48.9c-0.1,0-0.3,0-0.4-0.1l-28.4-9.5c-0.5-0.2-0.8-0.5-0.9-1l-8.3-42.9c-0.1-0.5,0.1-0.9,0.4-1.2
		c0.4-0.3,0.8-0.4,1.3-0.3l23.6,7.9c0.4,0.1,0.7,0.5,0.8,0.9l13.1,44.5c0.1,0.5,0,1-0.4,1.3C-108,48.8-108.3,48.9-108.7,48.9
		L-108.7,48.9z M-135.9,37.1l25.3,8.5l-12.2-41.4l-20.8-7L-135.9,37.1z"/>
</g>
<path class="st3" d="M-192.2,21.8c0-5.4,9.3-9.8,20.8-9.8c11.5,0,20.8,4.4,20.8,9.8s-9.3,9.8-20.8,9.8
	C-182.8,31.6-192.2,27.2-192.2,21.8L-192.2,21.8z"/>
<path class="st1" d="M-171.3,32.9c-12.4,0-22.1-4.9-22.1-11.1s9.7-11.1,22.1-11.1s22.1,4.9,22.1,11.1S-158.9,32.9-171.3,32.9z
	 M-171.3,13.4c-11.7,0-19.5,4.4-19.5,8.4s7.8,8.4,19.5,8.4s19.5-4.4,19.5-8.4S-159.6,13.4-171.3,13.4z"/>
<path class="st5" d="M157.7,10.5C75.9,10.5,9.6,76.8,9.6,158.6c0,45.7,24,81.3,50.1,116.8c22,29.9,98,133.8,98,133.8
	c11.1-14.5,76.2-103.9,98-133.8c26.1-35.5,50.1-71.1,50.1-116.8C305.8,76.8,239.5,10.5,157.7,10.5z"/>
<path class="st6" d="M85.1,275.6C59.1,240.1,35,204.4,35,158.8C35,81.3,94.5,17.6,170.4,11.3c-4.1-0.3-8.4-0.6-12.7-0.6
	C75.9,10.6,9.6,77,9.6,158.8c0,45.7,24,81.3,50.1,116.8c22,29.9,98,133.8,98,133.8c2.2-3,6.8-9.2,12.9-17.2
	C147.8,361.1,101.4,297.8,85.1,275.6L85.1,275.6z"/>
<path class="st1" d="M157.7,415.6L157.7,415.6c-2.1,0-4-1-5.1-2.5l-98-133.8c-28-38.3-51.2-73.8-51.2-120.6
	C3.4,73.3,72.7,4.1,157.9,4.1c85.3,0,154.5,69.4,154.5,154.5c0,46.8-23.2,82.3-51.4,120.6l-29.4,40.3
	c-27.2,37.2-60.9,83.5-68.7,93.6C161.5,414.6,159.6,415.6,157.7,415.6L157.7,415.6z M157.7,16.9c-78.1,0-141.8,63.6-141.8,141.8
	c0,43,22.1,76.5,48.8,113l92.9,126.8c12.6-16.9,40.4-55,63.5-86.6l29.4-40.3c26.7-36.4,48.8-70.2,48.8-113
	C299.5,80.5,235.8,16.9,157.7,16.9z"/>
<path class="st0" d="M229.1,157.3c0,39.5-32,71.4-71.4,71.4s-71.4-32-71.4-71.4s32-71.4,71.4-71.4S229.1,117.9,229.1,157.3z"/>
<path class="st1" d="M157.7,235.3c-43,0-77.8-34.8-77.8-77.8s35-77.8,77.8-77.8c43,0,77.8,35,77.8,77.8
	C235.5,200.3,200.7,235.3,157.7,235.3z M157.7,92.3c-36,0-65.1,29.3-65.1,65.1c0,36,29.3,65.1,65.1,65.1c36,0,65.1-29.3,65.1-65.1
	C222.8,121.5,193.7,92.3,157.7,92.3z"/>
</svg>
